C:\GBW_MyPrograms\PredSimResults\gait1018_esmac\gait1018_esmac_v37.mot
version=1
nRows=14
nColumns=29
inDegrees=yes
endheader
                time	         pelvis_tilt	           pelvis_tx	           pelvis_ty	       hip_flexion_l	       hip_flexion_r	        knee_angle_l	        knee_angle_r	       ankle_angle_l	       ankle_angle_r	    lumbar_extension	hamstrings_r/activation	bifemsh_r/activation	glut_max_r/activation	iliopsoas_r/activation	rect_fem_r/activation	  vasti_r/activation	gastroc_r/activation	 soleus_r/activation	tib_ant_r/activation	hamstrings_l/activation	bifemsh_l/activation	glut_max_l/activation	iliopsoas_l/activation	rect_fem_l/activation	  vasti_l/activation	gastroc_l/activation	 soleus_l/activation	tib_ant_l/activation	
          0.51631408	         -7.67626702	          0.63919006	          0.89432468	         34.89849163	         -7.06753713	        -14.79416482	        -14.11026350	         10.38191464	          6.24626546	          0.17105620	          0.01000039	          0.01000269	          0.01000088	          0.23512908	          0.29732784	          0.04894037	          0.27135717	          0.28781139	          0.01000004	          0.17868930	          0.01445324	          0.05938426	          0.02572911	          0.02212110	          0.03156431	          0.01172117	          0.02831507	          0.22003391	
          0.52664036	         -7.67508937	          0.65496487	          0.89371168	         34.33059810	         -7.78190189	        -14.05489902	        -14.49938329	         10.11687712	          4.95419325	          0.49823483	          0.01000021	          0.01000334	          0.01000098	          0.20277114	          0.25367034	          0.04175432	          0.25277034	          0.26477219	          0.01000005	          0.16790819	          0.01233125	          0.05066613	          0.02195122	          0.01887308	          0.03836143	          0.01000021	          0.03601162	          0.22452187	
          0.53696664	         -7.67169941	          0.67108347	          0.89300700	         33.68611301	         -8.35996801	        -13.71172381	        -15.16002805	          9.61155745	          3.58665532	          0.86614066	          0.01000065	          0.01609867	          0.01000013	          0.17299751	          0.21642300	          0.03562341	          0.22416450	          0.22719157	          0.01000004	          0.15704491	          0.01052104	          0.04584454	          0.01872805	          0.01610194	          0.07814518	          0.01654066	          0.03072393	          0.30450268	
          0.54729292	         -7.66621643	          0.68750435	          0.89218876	         32.95524883	         -8.77592257	        -13.83066633	        -16.13086903	          8.95732557	          2.13731657	          1.27033930	          0.01000025	          0.01373572	          0.02841186	          0.14759568	          0.18464489	          0.03039273	          0.19124959	          0.19383217	          0.01000004	          0.13398541	          0.01000041	          0.06729051	          0.01597815	          0.01373771	          0.11761970	          0.01411210	          0.02679615	          0.31015672	
          0.55761920	         -7.66135434	          0.70407815	          0.89135228	         32.14190552	         -8.98943968	        -14.23896456	        -17.44506894	          8.22630845	          0.54467096	          1.69516155	          0.02780870	          0.01172039	          0.03176403	          0.12592366	          0.15753280	          0.02593009	          0.16316768	          0.16537104	          0.01000003	          0.11662347	          0.01610532	          0.13432088	          0.01363203	          0.01172060	          0.14166548	          0.01204004	          0.02286158	          0.42994168	
          0.56794548	         -7.66185527	          0.72048905	          0.89072841	         31.34430922	         -8.92274606	        -14.66015540	        -19.16218619	          7.41705654	         -1.31429222	          2.10579302	          0.02372549	          0.01000042	          0.02710021	          0.10743387	          0.13440277	          0.02212271	          0.13920914	          0.14108897	          0.01000003	          0.09949922	          0.01374077	          0.17416778	          0.01163040	          0.01000006	          0.19392852	          0.01027217	          0.01950474	          0.52051273	
          0.57827177	         -7.67061855	          0.73649038	          0.89049047	         30.67783032	         -8.52917838	        -15.25442310	        -21.28347675	          6.66477562	         -3.58246451	          2.47454019	          0.02024182	          0.01001158	          0.02312100	          0.09816363	          0.15712435	          0.01887436	          0.11876853	          0.12037233	          0.01000003	          0.08488944	          0.01172334	          0.19706897	          0.01000009	          0.01000036	          0.26455948	          0.01000638	          0.01808130	          0.56002785	
          0.58859805	         -7.68660303	          0.75202014	          0.89067250	         30.10015280	         -7.83152874	        -15.97690342	        -23.73744446	          6.23497848	         -6.22136994	          2.79330777	          0.01726968	          0.01000094	          0.01972606	          0.09310790	          0.14987462	          0.01610298	          0.10132929	          0.10269760	          0.19325353	          0.07392844	          0.01000233	          0.22368688	          0.01000011	          0.01000028	          0.32590608	          0.01061350	          0.01542645	          0.60852509	
          0.59892433	         -7.71020525	          0.76704753	          0.89115536	         29.52409513	         -6.89990198	        -16.65993127	        -26.40897191	          6.06081595	         -8.49743354	          3.05942467	          0.01473402	          0.02345385	          0.01682962	          0.09490622	          0.15584450	          0.01373852	          0.08645072	          0.08761812	          0.16487745	          0.06508000	          0.01000090	          0.22915865	          0.01000007	          0.01000018	          0.36176156	          0.01000015	          0.01316136	          0.62862416	
          0.60925061	         -7.74144071	          0.78158438	          0.89189141	         28.90447360	         -5.80472864	        -17.21702105	        -29.10780507	          6.07048831	         -9.65534187	          3.27503826	          0.01257083	          0.04739637	          0.01435848	          0.09206995	          0.14937783	          0.01172125	          0.07375685	          0.07475282	          0.19514142	          0.06268848	          0.01000113	          0.21671065	          0.01000010	          0.01000025	          0.37512723	          0.01000048	          0.01209568	          0.61231058	
          0.61957689	         -7.77918840	          0.79567454	          0.89290606	         28.23350516	         -4.56303275	        -17.63873295	        -31.79160110	          6.23948848	        -10.05548136	          3.44501112	          0.01767337	          0.06148534	          0.01225018	          0.08209845	          0.19894257	          0.01000020	          0.06292689	          0.06377658	          0.22422807	          0.06566936	          0.01000114	          0.20154814	          0.01000010	          0.01000025	          0.36790531	          0.01000048	          0.01937468	          0.59277126	
          0.62990317	         -7.82235472	          0.80936759	          0.89418435	         27.51994897	         -3.20017027	        -17.94048774	        -34.39971581	          6.50725499	         -9.98406326	          3.57474407	          0.03090356	          0.07951598	          0.01045147	          0.07560103	          0.23501383	          0.01000003	          0.05368722	          0.05441202	          0.22950705	          0.06634801	          0.01000134	          0.18394480	          0.01000009	          0.01000023	          0.34969872	          0.01000019	          0.02916649	          0.56297908	
          0.64022946	         -7.86966933	          0.82271987	          0.89567686	         26.77230051	         -1.74475024	        -18.14158915	        -36.87098265	          6.84428886	         -9.61732126	          3.67005282	          0.03562146	          0.09767355	          0.01000007	          0.06983213	          0.26511077	          0.01000004	          0.04580427	          0.04642250	          0.22004223	          0.06775979	          0.01000111	          0.16960137	          0.01000010	          0.01000025	          0.32799772	          0.01000025	          0.04746183	          0.52376737	
          0.65055574	         -7.91993934	          0.83578043	          0.89732837	         25.99522720	         -0.22054118	        -18.25495946	        -39.15956806	          7.23023394	         -9.04883643	          3.73577475	          0.03039198	          0.11735321	          0.01000009	          0.06338123	          0.28566043	          0.01000004	          0.03907871	          0.03960611	          0.20586179	          0.06974769	          0.01000109	          0.15904709	          0.01000009	          0.01000025	          0.30376864	          0.01000029	          0.06267072	          0.48538775	
